<?xml version="1.0" encoding="UTF-8" standalone="no"?>
<!-- Created with Inkscape (http://www.inkscape.org/) -->

<svg
   xmlns:dc="http://purl.org/dc/elements/1.1/"
   xmlns:cc="http://creativecommons.org/ns#"
   xmlns:rdf="http://www.w3.org/1999/02/22-rdf-syntax-ns#"
   xmlns:svg="http://www.w3.org/2000/svg"
   xmlns="http://www.w3.org/2000/svg"
   xmlns:sodipodi="http://sodipodi.sourceforge.net/DTD/sodipodi-0.dtd"
   xmlns:inkscape="http://www.inkscape.org/namespaces/inkscape"
   width="510"
   height="509.96429"
   viewBox="0 0 510.00001 509.9643"
   id="svg18516"
   version="1.1"
   inkscape:version="0.91 r13725"
   sodipodi:docname="Logo PSG.svg">
  <defs
     id="defs18518">
    <linearGradient
       id="linearGradient7965"
       spreadMethod="pad"
       gradientTransform="matrix(3374.4175,0,0,-3374.4175,-2044.7625,-2903.7816)"
       gradientUnits="userSpaceOnUse"
       y2="-1.083302"
       x2="0.90576899"
       y1="-1.036428"
       x1="0.77748299">
      <stop
         id="stop7967"
         offset="0"
         style="stop-opacity:1;stop-color:#666666" />
      <stop
         id="stop7969"
         offset="1"
         style="stop-opacity:1;stop-color:#e5e5e5" />
    </linearGradient>
    <radialGradient
       id="radialGradient7985"
       spreadMethod="pad"
       gradientTransform="matrix(122.15304,335.61286,-335.61286,122.15304,739.26792,553.4903)"
       gradientUnits="userSpaceOnUse"
       r="1"
       cy="0"
       cx="0"
       fy="0"
       fx="0">
      <stop
         id="stop7987"
         offset="0"
         style="stop-opacity:1;stop-color:#ffffff" />
      <stop
         id="stop7989"
         offset="1"
         style="stop-opacity:1;stop-color:#999999" />
    </radialGradient>
    <linearGradient
       id="linearGradient9249"
       spreadMethod="pad"
       gradientTransform="matrix(3374.4175,0,0,-3374.4175,-2044.7625,-2903.7816)"
       gradientUnits="userSpaceOnUse"
       y2="-1.011266"
       x2="0.87096399"
       y1="-1.027856"
       x1="0.88054198">
      <stop
         id="stop9251"
         offset="0"
         style="stop-opacity:1;stop-color:#1c1c1c" />
      <stop
         id="stop9253"
         offset="0.850007"
         style="stop-opacity:1;stop-color:#4a4a4a" />
      <stop
         id="stop9255"
         offset="1"
         style="stop-opacity:1;stop-color:#4a4a4a" />
    </linearGradient>
    <linearGradient
       id="linearGradient9271"
       spreadMethod="pad"
       gradientTransform="matrix(3374.4175,0,0,-3374.4175,-2044.7625,-2903.7816)"
       gradientUnits="userSpaceOnUse"
       y2="-1.0050811"
       x2="0.85855299"
       y1="-1.0168869"
       x1="0.86536902">
      <stop
         id="stop9273"
         offset="0"
         style="stop-opacity:1;stop-color:#333333" />
      <stop
         id="stop9275"
         offset="0.850007"
         style="stop-opacity:1;stop-color:#666666" />
      <stop
         id="stop9277"
         offset="1"
         style="stop-opacity:1;stop-color:#666666" />
    </linearGradient>
    <linearGradient
       id="linearGradient9227"
       spreadMethod="pad"
       gradientTransform="matrix(3374.4175,0,0,-3374.4175,-2044.7625,-2903.7816)"
       gradientUnits="userSpaceOnUse"
       y2="-0.99758899"
       x2="0.83925903"
       y1="-1.018329"
       x1="0.85123402">
      <stop
         id="stop9229"
         offset="0"
         style="stop-opacity:1;stop-color:#5c5c5c" />
      <stop
         id="stop9231"
         offset="0.850007"
         style="stop-opacity:1;stop-color:#424242" />
      <stop
         id="stop9233"
         offset="1"
         style="stop-opacity:1;stop-color:#424242" />
    </linearGradient>
    <linearGradient
       id="linearGradient9293"
       spreadMethod="pad"
       gradientTransform="matrix(3374.4175,0,0,-3374.4175,-2044.7625,-2903.7816)"
       gradientUnits="userSpaceOnUse"
       y2="-1.003181"
       x2="0.81797397"
       y1="-1.020481"
       x1="0.82796198">
      <stop
         id="stop9295"
         offset="0"
         style="stop-opacity:1;stop-color:#666666" />
      <stop
         id="stop9297"
         offset="0.850005"
         style="stop-opacity:1;stop-color:#666666" />
      <stop
         id="stop9299"
         offset="1"
         style="stop-opacity:1;stop-color:#666666" />
    </linearGradient>
    <linearGradient
       id="linearGradient9205"
       spreadMethod="pad"
       gradientTransform="matrix(3374.4175,0,0,-3374.4175,-2044.7625,-2903.7816)"
       gradientUnits="userSpaceOnUse"
       y2="-1.0111099"
       x2="0.80174398"
       y1="-1.028295"
       x1="0.811665">
      <stop
         id="stop9207"
         offset="0"
         style="stop-opacity:1;stop-color:#6b6b6b" />
      <stop
         id="stop9209"
         offset="0.852768"
         style="stop-opacity:1;stop-color:#666666" />
      <stop
         id="stop9211"
         offset="1"
         style="stop-opacity:1;stop-color:#666666" />
    </linearGradient>
    <linearGradient
       id="linearGradient9315"
       spreadMethod="pad"
       gradientTransform="matrix(3374.4175,0,0,-3374.4175,-2044.7625,-2903.7816)"
       gradientUnits="userSpaceOnUse"
       y2="-1.0349981"
       x2="0.84366798"
       y1="-0.99847001"
       x1="0.83722699">
      <stop
         id="stop9317"
         offset="0"
         style="stop-opacity:1;stop-color:#ffffff" />
      <stop
         id="stop9319"
         offset="0.149994"
         style="stop-opacity:1;stop-color:#ffffff" />
      <stop
         id="stop9321"
         offset="1"
         style="stop-opacity:1;stop-color:#cccccc" />
    </linearGradient>
    <radialGradient
       id="radialGradient10337-7-8"
       spreadMethod="pad"
       gradientTransform="matrix(280.7701,0,0,280.77,660.76157,790.87852)"
       gradientUnits="userSpaceOnUse"
       r="1"
       cy="0"
       cx="0"
       fy="0"
       fx="0">
      <stop
         id="stop10339-2-2"
         offset="0"
         style="stop-opacity:1;stop-color:#cccccc" />
      <stop
         id="stop10341-0-8"
         offset="1"
         style="stop-opacity:1;stop-color:#a6a6a6" />
    </radialGradient>
    <radialGradient
       id="radialGradient10317-3-9"
       spreadMethod="pad"
       gradientTransform="matrix(280.90473,0,0,280.90473,660.62271,790.72091)"
       gradientUnits="userSpaceOnUse"
       r="1"
       cy="0"
       cx="0"
       fy="0"
       fx="0">
      <stop
         id="stop10319-4-5"
         offset="0"
         style="stop-opacity:1;stop-color:#cccccc" />
      <stop
         id="stop10321-2-7"
         offset="1"
         style="stop-opacity:1;stop-color:#a6a6a6" />
    </radialGradient>
    <radialGradient
       id="radialGradient10297-9-2"
       spreadMethod="pad"
       gradientTransform="matrix(281.45408,0,0,281.45402,660.4411,790.71605)"
       gradientUnits="userSpaceOnUse"
       r="1"
       cy="0"
       cx="0"
       fy="0"
       fx="0">
      <stop
         id="stop10299-2-8"
         offset="0"
         style="stop-opacity:1;stop-color:#cccccc" />
      <stop
         id="stop10301-8-7"
         offset="1"
         style="stop-opacity:1;stop-color:#a6a6a6" />
    </radialGradient>
    <radialGradient
       id="radialGradient10277-8-3"
       spreadMethod="pad"
       gradientTransform="matrix(281.33194,0,0,281.33194,660.52253,790.72558)"
       gradientUnits="userSpaceOnUse"
       r="1"
       cy="0"
       cx="0"
       fy="0"
       fx="0">
      <stop
         id="stop10279-7-1"
         offset="0"
         style="stop-opacity:1;stop-color:#cccccc" />
      <stop
         id="stop10281-5-6"
         offset="1"
         style="stop-opacity:1;stop-color:#a6a6a6" />
    </radialGradient>
    <radialGradient
       id="radialGradient10257-5-1"
       spreadMethod="pad"
       gradientTransform="matrix(281.41798,0,0,281.41798,660.46501,790.7352)"
       gradientUnits="userSpaceOnUse"
       r="1"
       cy="0"
       cx="0"
       fy="0"
       fx="0">
      <stop
         id="stop10259-5-2"
         offset="0"
         style="stop-opacity:1;stop-color:#cccccc" />
      <stop
         id="stop10261-6-0"
         offset="1"
         style="stop-opacity:1;stop-color:#a6a6a6" />
    </radialGradient>
    <radialGradient
       id="radialGradient10237-7-2"
       spreadMethod="pad"
       gradientTransform="matrix(281.36703,0,0,281.36703,660.49843,790.73996)"
       gradientUnits="userSpaceOnUse"
       r="1"
       cy="0"
       cx="0"
       fy="0"
       fx="0">
      <stop
         id="stop10239-5-9"
         offset="0"
         style="stop-opacity:1;stop-color:#cccccc" />
      <stop
         id="stop10241-5-5"
         offset="1"
         style="stop-opacity:1;stop-color:#a6a6a6" />
    </radialGradient>
    <radialGradient
       id="radialGradient10217-9-5"
       spreadMethod="pad"
       gradientTransform="matrix(281.2442,0,0,281.24413,660.61329,790.74472)"
       gradientUnits="userSpaceOnUse"
       r="1"
       cy="0"
       cx="0"
       fy="0"
       fx="0">
      <stop
         id="stop10219-3-2"
         offset="0"
         style="stop-opacity:1;stop-color:#cccccc" />
      <stop
         id="stop10221-1-8"
         offset="1"
         style="stop-opacity:1;stop-color:#a6a6a6" />
    </radialGradient>
    <radialGradient
       id="radialGradient10197-8-3"
       spreadMethod="pad"
       gradientTransform="matrix(281.01204,0,0,281.01204,660.77099,790.72558)"
       gradientUnits="userSpaceOnUse"
       r="1"
       cy="0"
       cx="0"
       fy="0"
       fx="0">
      <stop
         id="stop10199-9-5"
         offset="0"
         style="stop-opacity:1;stop-color:#cccccc" />
      <stop
         id="stop10201-1-0"
         offset="1"
         style="stop-opacity:1;stop-color:#a6a6a6" />
    </radialGradient>
    <radialGradient
       id="radialGradient10177-4-7"
       spreadMethod="pad"
       gradientTransform="matrix(281.36061,0,0,281.36054,660.561,790.70653)"
       gradientUnits="userSpaceOnUse"
       r="1"
       cy="0"
       cx="0"
       fy="0"
       fx="0">
      <stop
         id="stop10179-2-7"
         offset="0"
         style="stop-opacity:1;stop-color:#cccccc" />
      <stop
         id="stop10181-0-9"
         offset="1"
         style="stop-opacity:1;stop-color:#a6a6a6" />
    </radialGradient>
    <radialGradient
       id="radialGradient10157-1-7"
       spreadMethod="pad"
       gradientTransform="matrix(281.48108,0,0,281.48108,660.50872,790.74948)"
       gradientUnits="userSpaceOnUse"
       r="1"
       cy="0"
       cx="0"
       fy="0"
       fx="0">
      <stop
         id="stop10159-9-4"
         offset="0"
         style="stop-opacity:1;stop-color:#cccccc" />
      <stop
         id="stop10161-6-1"
         offset="1"
         style="stop-opacity:1;stop-color:#a6a6a6" />
    </radialGradient>
    <radialGradient
       id="radialGradient10137-7-6"
       spreadMethod="pad"
       gradientTransform="matrix(281.19796,0,0,281.19796,660.58929,790.76386)"
       gradientUnits="userSpaceOnUse"
       r="1"
       cy="0"
       cx="0"
       fy="0"
       fx="0">
      <stop
         id="stop10139-1-8"
         offset="0"
         style="stop-opacity:1;stop-color:#cccccc" />
      <stop
         id="stop10141-8-7"
         offset="1"
         style="stop-opacity:1;stop-color:#a6a6a6" />
    </radialGradient>
    <radialGradient
       id="radialGradient10117-3-6"
       spreadMethod="pad"
       gradientTransform="matrix(280.89426,0,0,280.89426,660.62271,790.79719)"
       gradientUnits="userSpaceOnUse"
       r="1"
       cy="0"
       cx="0"
       fy="0"
       fx="0">
      <stop
         id="stop10119-5-1"
         offset="0"
         style="stop-opacity:1;stop-color:#cccccc" />
      <stop
         id="stop10121-3-4"
         offset="1"
         style="stop-opacity:1;stop-color:#a6a6a6" />
    </radialGradient>
    <radialGradient
       id="radialGradient10097-7-7"
       spreadMethod="pad"
       gradientTransform="matrix(281.07582,0,0,281.07582,660.60386,790.74472)"
       gradientUnits="userSpaceOnUse"
       r="1"
       cy="0"
       cx="0"
       fy="0"
       fx="0">
      <stop
         id="stop10099-3-6"
         offset="0"
         style="stop-opacity:1;stop-color:#cccccc" />
      <stop
         id="stop10101-1-0"
         offset="1"
         style="stop-opacity:1;stop-color:#a6a6a6" />
    </radialGradient>
    <linearGradient
       id="linearGradient8437-3"
       spreadMethod="pad"
       gradientTransform="matrix(3374.4175,0,0,-3374.4175,-2044.7625,-2903.7816)"
       gradientUnits="userSpaceOnUse"
       y2="-1.093949"
       x2="0.84245503"
       y1="-1.081903"
       x1="0.83725297">
      <stop
         id="stop8439-4"
         offset="0"
         style="stop-opacity:1;stop-color:#ceb047" />
      <stop
         id="stop8441-4"
         offset="0.263808"
         style="stop-opacity:1;stop-color:#bb9540" />
      <stop
         id="stop8443-3"
         offset="1"
         style="stop-opacity:1;stop-color:#997e3d" />
    </linearGradient>
    <linearGradient
       id="linearGradient8459-7"
       spreadMethod="pad"
       gradientTransform="matrix(3374.4175,0,0,-3374.4175,-2044.7625,-2903.7816)"
       gradientUnits="userSpaceOnUse"
       y2="-1.092543"
       x2="0.84571499"
       y1="-1.080492"
       x1="0.84051102">
      <stop
         id="stop8461-7"
         offset="0"
         style="stop-opacity:1;stop-color:#ceb047" />
      <stop
         id="stop8463-8"
         offset="0.26381"
         style="stop-opacity:1;stop-color:#bb9540" />
      <stop
         id="stop8465-8"
         offset="1"
         style="stop-opacity:1;stop-color:#997e3d" />
    </linearGradient>
    <linearGradient
       id="linearGradient8481-0"
       spreadMethod="pad"
       gradientTransform="matrix(3374.4175,0,0,-3374.4175,-2044.7625,-2903.7816)"
       gradientUnits="userSpaceOnUse"
       y2="-1.095265"
       x2="0.83941501"
       y1="-1.0832109"
       x1="0.83420998">
      <stop
         id="stop8483-3"
         offset="0"
         style="stop-opacity:1;stop-color:#ceb047" />
      <stop
         id="stop8485-0"
         offset="0.263809"
         style="stop-opacity:1;stop-color:#bb9540" />
      <stop
         id="stop8487-4"
         offset="1"
         style="stop-opacity:1;stop-color:#997e3d" />
    </linearGradient>
    <linearGradient
       id="linearGradient8503-4"
       spreadMethod="pad"
       gradientTransform="matrix(3374.4175,0,0,-3374.4175,-2044.7625,-2903.7816)"
       gradientUnits="userSpaceOnUse"
       y2="-1.091506"
       x2="0.84812599"
       y1="-1.079443"
       x1="0.84291703">
      <stop
         id="stop8505-4"
         offset="0"
         style="stop-opacity:1;stop-color:#ceb047" />
      <stop
         id="stop8507-8"
         offset="0.263808"
         style="stop-opacity:1;stop-color:#bb9540" />
      <stop
         id="stop8509-0"
         offset="1"
         style="stop-opacity:1;stop-color:#997e3d" />
    </linearGradient>
  </defs>
  <sodipodi:namedview
     id="base"
     pagecolor="#ffffff"
     bordercolor="#666666"
     borderopacity="1.0"
     inkscape:pageopacity="0.0"
     inkscape:pageshadow="2"
     inkscape:zoom="1"
     inkscape:cx="42.378536"
     inkscape:cy="233.56858"
     inkscape:document-units="px"
     inkscape:current-layer="layer1"
     showgrid="false"
     inkscape:window-width="1680"
     inkscape:window-height="987"
     inkscape:window-x="-8"
     inkscape:window-y="-8"
     inkscape:window-maximized="1"
     fit-margin-top="5"
     fit-margin-right="5"
     fit-margin-bottom="5"
     fit-margin-left="5"
     units="px" />
  <metadata
     id="metadata18521">
    <rdf:RDF>
      <cc:Work
         rdf:about="">
        <dc:format>image/svg+xml</dc:format>
        <dc:type
           rdf:resource="http://purl.org/dc/dcmitype/StillImage" />
        <dc:title></dc:title>
      </cc:Work>
    </rdf:RDF>
  </metadata>
  <g
     inkscape:label="Calque 1"
     inkscape:groupmode="layer"
     id="layer1"
     transform="translate(-540.24059,-417.3874)">
    <path
       inkscape:connector-curvature="0"
       id="path7883"
       style="fill:#155195;fill-opacity:1;fill-rule:nonzero;stroke:none"
       d="m 795.22869,422.3874 c -137.82677,0 -249.9881,112.14942 -249.9881,249.9881 0,137.82677 112.16133,249.97619 249.9881,249.97619 137.86248,0 250.01191,-112.14942 250.01191,-249.97619 0,-137.83868 -112.14943,-249.9881 -250.01191,-249.9881" />
    <path
       inkscape:connector-curvature="0"
       id="path7971"
       style="fill:url(#linearGradient7965);stroke:none"
       d="m 632.35968,509.94809 c -43.49793,43.45031 -67.47298,101.25708 -67.47298,162.69463 0,61.44946 23.97505,119.23242 67.47298,162.70654 43.50983,43.47412 101.36422,67.34203 162.8732,67.34203 61.53278,0 119.36336,-23.86791 162.897,-67.34203 43.48602,-43.47412 67.46112,-101.25708 67.46112,-162.70654 0,-61.43755 -23.9751,-119.24432 -67.46112,-162.69463 -43.53364,-43.43841 -101.36422,-67.37774 -162.897,-67.37774 -61.50898,0 -119.36337,23.93933 -162.8732,67.37774 m -58.34246,162.23037 c 0,-122.26799 99.0429,-221.39422 221.21566,-221.39422 122.18465,0 221.22752,99.12623 221.22752,221.39422 0,122.3037 -99.04287,221.45374 -221.22752,221.45374 -122.17276,0 -221.21566,-99.15004 -221.21566,-221.45374 m 85.54355,1.22613 c 0,74.84168 60.93757,135.68402 135.83876,135.68402 74.9012,0 135.83877,-60.84234 135.83877,-135.68402 0,-74.81786 -60.93757,-135.69592 -135.83877,-135.69592 -74.90119,0 -135.83876,60.87806 -135.83876,135.69592 M 813.27964,548.08913 c 61.52088,8.70197 108.84005,61.47326 108.84005,125.31546 0,20.46331 -4.86881,39.74811 -13.51126,56.85444 C 852.77775,688.40388 818.83889,629.4305 813.27964,548.08913 M 668.67938,673.40459 c 0,-63.8422 47.29537,-116.6373 108.85196,-125.31546 -5.57117,81.34137 -39.51003,140.35046 -95.3407,182.1699 -8.64245,-17.10633 -13.51126,-36.39113 -13.51126,-56.85444 m 81.25803,118.14914 c -5.14261,-7.79725 -8.14247,-17.0111 -8.14247,-26.92729 0,-28.07009 24.03457,-50.87853 53.60459,-50.87853 29.61764,0 53.6284,22.80844 53.6284,50.87853 0,9.88048 -2.98795,19.13004 -8.16627,26.92729 -14.10648,5.44022 -29.43908,8.42817 -45.46213,8.42817 -16.04685,0 -31.33184,-2.98795 -45.46212,-8.42817" />
    <path
       inkscape:connector-curvature="0"
       id="path7991"
       style="fill:url(#radialGradient7985);stroke:none"
       d="m 631.10974,508.24579 c -43.85506,43.81934 -67.99676,102.10228 -67.99676,164.12314 0,62.00895 24.1417,120.3157 67.99676,164.15885 43.81934,43.83124 102.12609,68.02057 164.12314,68.02057 62.02085,0 120.30379,-24.18933 164.14694,-68.02057 43.84318,-43.84315 67.97298,-102.1499 67.97298,-164.15885 0,-62.02086 -24.1298,-120.3038 -67.97298,-164.12314 -43.84315,-43.87886 -102.12609,-67.99676 -164.14694,-67.99676 -61.99705,0 -120.3038,24.1179 -164.12314,67.99676 m -58.81863,164.12314 c 0,-123.11319 99.82858,-222.92986 222.94177,-222.92986 123.12509,0 222.96552,99.81667 222.96552,222.92986 0,123.14889 -99.84043,222.92986 -222.96552,222.92986 -123.11319,0 -222.94177,-99.78097 -222.94177,-222.92986 m 86.21018,0.77329 c 0,75.4845 61.41374,136.92206 136.89824,136.92206 75.4607,0 136.91015,-61.43756 136.91015,-136.92206 0,-75.4964 -61.44945,-136.88633 -136.91015,-136.88633 -75.4845,0 -136.89824,61.38993 -136.89824,136.88633 m 9.16623,0 c 0,-64.40169 47.71202,-117.66106 109.73287,-126.43445 -5.63068,82.10323 -39.80763,141.6123 -96.11447,183.80077 -8.67816,-17.22537 -13.6184,-36.70063 -13.6184,-57.36632 M 813.44629,546.73158 c 61.96134,8.76148 109.64954,62.00895 109.64954,126.41064 0,20.66569 -4.90452,40.10524 -13.6303,57.36632 -56.21161,-42.23608 -90.42426,-101.73325 -96.01924,-183.77696 m -63.866,245.64306 c -5.20214,-7.90438 -8.2258,-17.20156 -8.2258,-27.21299 0,-28.33198 24.21313,-51.28327 54.04504,-51.28327 29.84382,0 54.00934,22.95129 54.00934,51.28327 0,10.01143 -2.98796,19.30861 -8.20199,27.21299 -14.21361,5.46403 -29.65335,8.47579 -45.80735,8.47579 -16.15399,0 -31.58182,-3.01176 -45.81924,-8.47579" />
    <path
       d="m 795.22869,895.30012 c -123.11319,0 -222.92986,-99.78096 -222.92986,-222.92986 0,-123.12509 99.81667,-222.94176 222.92986,-222.94176 123.13699,0 222.96561,99.81667 222.96561,222.94176 0,123.1489 -99.82862,222.92986 -222.96561,222.92986 z m 164.15885,-387.0649 c -43.84315,-43.86696 -102.138,-67.98486 -164.15885,-67.98486 -61.98515,0 -120.2919,24.1179 -164.12314,67.98486 -43.85506,43.84315 -67.98486,102.11418 -67.98486,164.13504 0,62.00895 24.1298,120.3157 67.98486,164.15885 43.83124,43.83125 102.13799,68.02057 164.12314,68.02057 62.02085,0 120.3157,-24.18932 164.15885,-68.02057 43.83126,-43.84315 67.97296,-102.1499 67.97296,-164.15885 0,-62.02086 -24.1417,-120.29189 -67.97296,-164.13504 z M 909.48515,730.51035 C 853.24973,688.27427 819.03708,628.7771 813.4421,546.73339 c 61.96134,8.77339 109.64954,62.02085 109.64954,126.42255 0,20.65378 -4.90452,40.09333 -13.60649,57.35441 z m -68.28246,61.8542 c -14.21361,5.47593 -29.65335,8.49959 -45.79544,8.49959 -16.15399,0 -31.59373,-3.02366 -45.83115,-8.49959 -5.20214,-7.89248 -8.2139,-17.18966 -8.2139,-27.20109 0,-28.33198 24.20123,-51.28327 54.04505,-51.28327 29.83191,0 54.00933,22.95129 54.00933,51.28327 0,10.01143 -2.99986,19.30861 -8.21389,27.20109 z m -159.90905,-61.8542 c -8.69007,-17.22537 -13.6184,-36.70063 -13.6184,-57.35441 0,-64.4017 47.70011,-117.68487 109.72096,-126.44636 -5.63068,82.10323 -39.80763,141.6004 -96.10256,183.80077 z M 795.40725,536.25769 c -75.49641,0 -136.91015,61.38994 -136.91015,136.89825 0,75.47259 61.41374,136.92205 136.91015,136.92205 75.46069,0 136.91015,-61.44946 136.91015,-136.92205 0,-75.50831 -61.44946,-136.89825 -136.91015,-136.89825 z"
       style="fill:none;stroke:#868485;stroke-width:0.10713776;stroke-linecap:butt;stroke-linejoin:miter;stroke-miterlimit:10;stroke-dasharray:none;stroke-opacity:1"
       id="path7995"
       inkscape:connector-curvature="0" />
    <path
       inkscape:connector-curvature="0"
       id="path9213"
       style="fill:url(#linearGradient9205);stroke:none"
       d="m 664.72719,506.8649 -23.92744,26.32018 0,1.59516 41.74802,38.022 0.79805,-0.84567 c 2.35703,-2.61893 4.30932,-4.63074 7.39251,-7.52346 0,0 -0.0762,-1.54754 -0.0952,-1.49992 l -12.99938,-11.86849 0.84473,0.76187 9.0829,-10.36855 4.52359,-5.23785 c 1.46422,-1.72611 3.1308,-3.4165 4.34503,-5.49974 2.42846,-4.02361 3.44031,-8.89243 2.88082,-13.52316 -0.2857,-2.32132 -0.97615,-4.55931 -2.01181,-6.63064 -1.07138,-2.04752 -2.5475,-3.90457 -4.2498,-5.41641 -3.65459,-3.32127 -8.35674,-4.91643 -13.08271,-4.91643 -5.63068,-0.01 -11.28518,2.2737 -15.24927,6.63064 m -7.73773,25.36784 12.38036,-14.4636 c 1.04757,-1.19042 2.08324,-2.45226 3.107,-3.59507 1.04757,-1.09518 2.39274,-1.91657 3.88076,-2.38084 2.92844,-0.91614 6.40446,-0.21427 8.80911,1.85706 3.84505,3.51174 4.11885,9.55907 0.58283,13.39222 l -15.61831,17.17775 -13.14223,-11.98752 z" />
    <path
       inkscape:connector-curvature="0"
       id="path9235"
       style="fill:url(#linearGradient9227);stroke:none"
       d="m 782.85251,465.03356 -0.01,58.33056 c 4.27361,-0.34475 8.11866,-0.49998 11.6423,-0.49998 l 1.15471,0 0,-17.39203 14.13028,0 11.78515,18.67768 c 0.52379,0.59521 1.09519,1.03567 1.65469,1.47613 0.59521,0.13142 1.20232,0.25046 1.80943,0.38093 1.21423,0.25046 2.42846,0.5114 3.64269,0.78568 1.20232,0.2857 2.41655,0.59521 3.61887,0.91614 l 1.82134,0.47617 c 0.69045,-0.20285 1.36899,-0.34474 2.10705,-0.64283 l -15.035,-23.96314 c 2.26179,-0.0857 4.47598,-0.78568 6.49969,-1.85705 2.03562,-1.07138 3.86886,-2.49989 5.41641,-4.2379 1.48802,-1.76182 2.72606,-3.80934 3.4046,-6.04733 0.72568,-2.19037 0.88091,-4.5474 0.40474,-6.78539 0,-10.80901 -10.24951,-19.61811 -21.08233,-19.61811 l -32.96272,0 z m 12.7494,11.40422 20.21332,-0.23808 c 5.23785,0 9.48764,3.23794 9.48764,8.45198 0,5.24975 -4.24979,9.48764 -9.48764,9.48764 l -20.17761,0 -0.0381,-17.70154 z" />
    <path
       inkscape:connector-curvature="0"
       id="path9257"
       style="fill:url(#linearGradient9249);stroke:none"
       d="m 897.89465,506.94823 c -7.47583,7.083 -3.22603,17.95153 3.32127,24.84406 l 6.34494,6.70206 c 6.48779,6.83301 12.13038,13.6184 6.92824,17.92772 -5.54735,4.5474 -21.04661,-6.91634 -30.3557,-26.62969 l -8.36864,6.28542 c 0.53521,2.60702 1.4404,5.15451 2.49988,7.63059 1.33327,2.29751 2.8451,4.51169 4.45217,6.64254 3.20222,4.2498 6.92824,8.10675 11.11851,11.45183 4.19028,3.33318 8.89244,6.15447 14.27313,7.47584 2.65464,0.66663 5.45212,0.89234 8.2258,0.46474 2.86891,-0.63045 5.15452,-1.82134 6.88063,-4.33313 8.63054,-7.98771 5.48783,-19.63002 -8.03533,-33.86743 l -5.60688,-5.91639 c -1.60707,-2.35703 -2.23799,-3.83315 -2.58321,-5.27356 -0.2857,-1.04757 -0.36951,-2.11894 0,-2.92843 0.34474,-0.80948 0.76187,-1.24994 1.44041,-1.47612 1.64278,-0.79806 3.7022,-0.0381 5.54735,0.71425 1.88086,0.79806 3.6784,1.86896 5.3807,3.1189 3.39269,2.46417 6.44017,5.47593 9.0948,8.77339 2.64273,3.29747 4.99976,6.95205 6.15447,10.85663 l 0.4876,1.60707 1.33327,-1.01186 c 0.32189,-0.25047 0.66663,-0.51141 0.99995,-0.76187 0.34475,-0.21428 0.70282,-0.46474 0.99995,-0.75044 l 4.70216,-3.61888 c 0.30951,-0.78567 0.47617,-1.16661 0.71425,-1.82134 -5.23785,-14.89215 -22.73701,-29.8081 -36.14114,-29.8081 -3.7022,0 -7.07109,1.1309 -9.80905,3.7022 z" />
    <path
       inkscape:connector-curvature="0"
       id="path9279"
       style="fill:url(#linearGradient9271);stroke:none"
       d="m 847.5161,530.05428 c -0.01,0 -0.43998,1.08328 -0.47617,1.04756 l 0.41713,1.4166 c 3.39269,1.29756 6.77348,2.70226 10.10666,4.2379 l 1.09518,0.51235 21.45136,-51.61659 0,-2.99985 c -3.61887,-1.64278 -7.28536,-3.1189 -11.01138,-4.5355 l -21.5823,51.938 z" />
    <path
       inkscape:connector-curvature="0"
       id="path9301"
       style="fill:url(#linearGradient9293);stroke:none"
       d="m 719.76028,478.87814 -4.22599,63.88982 c -0.0286,0.26189 -0.11904,2.20227 -0.11904,2.20227 3.80934,-2.32132 9.03528,-5.05928 13.08271,-7.03538 l 0.64283,-14.95167 c 7.4044,-3.16651 15.08261,-5.86876 22.91557,-7.98771 l 9.80906,11.26137 c 4.42836,-0.94091 10.40426,-1.84515 14.80882,-2.42846 l -0.8333,-0.96424 -0.79805,-0.89234 -43.21223,-47.41441 c -4.08314,1.33327 -8.10676,2.73797 -12.07086,4.32123 m 10.65426,11.27327 13.916,15.95162 c -5.01166,1.53564 -9.95191,3.23794 -14.7493,5.19023 l 0.8333,-21.14185 z" />
    <path
       inkscape:connector-curvature="0"
       id="path9323"
       style="fill:url(#linearGradient9315);stroke:none"
       d="m 782.85251,465.03356 0,57.15204 c 3.84506,-0.32189 7.70202,-0.52378 11.6304,-0.52378 l 0,-17.35632 14.55883,0 12.51131,19.84429 c 4.96405,0.92853 9.86858,2.04753 14.65407,3.3927 l -15.035,-23.96314 c 8.61863,-2.28561 15.72544,-9.90429 15.72544,-18.92767 0,-10.80901 -10.24951,-19.61812 -21.08233,-19.61812 l -32.96272,0 z m 11.6304,10.15428 21.33232,0 c 5.23785,0 9.48764,4.2498 9.48764,9.46384 0,5.24975 -4.24979,9.48764 -9.48764,9.48764 l -21.33232,0 0,-18.95148 z m -74.72263,3.6903 -4.29741,65.05643 c 3.85695,-2.35703 7.80915,-4.5236 11.89229,-6.53541 l 0.60759,-15.20165 c 7.85676,-3.45222 16.03495,-6.32113 24.48693,-8.54722 l 9.99952,11.47565 c 4.38074,-0.93996 8.84482,-1.6904 13.39222,-2.2618 l -44.00981,-48.30722 c -4.08314,1.33327 -8.10676,2.73796 -12.07085,4.32122 m 9.61859,8.32103 16.16589,18.52293 c -5.84496,1.73801 -11.57088,3.73792 -17.15394,6.04733 l 0.98805,-24.57026 z m 117.66106,43.90267 c 3.76172,1.4166 7.40441,2.91653 11.02328,4.58312 l 22.04657,-53.03319 c -3.61887,-1.64278 -7.28536,-3.1189 -11.01138,-4.5355 l -22.05847,52.98557 z m -182.31275,-24.23694 -23.92743,26.32018 41.65278,37.97438 c 2.63083,-2.8451 5.36879,-5.59497 8.19008,-8.2258 l -12.99938,-11.86848 16.09448,-17.74915 c 7.29727,-7.99962 7.32108,-20.86806 -0.67807,-28.16533 -3.65459,-3.32127 -8.35674,-4.91643 -13.08271,-4.91643 -5.63068,-0.01 -11.28517,2.2737 -15.24927,6.63063 m -8.59483,24.58217 15.64211,-17.14204 c 3.51174,-3.90458 9.51145,-4.17838 13.39222,-0.65426 3.84506,3.51174 4.11885,9.55907 0.58283,13.39222 l -15.6183,17.17775 -13.99934,-12.7732 z m 241.7623,-24.49884 c -7.47584,7.083 -3.22604,17.95153 3.32127,24.84406 l 6.34493,6.70206 c 6.48779,6.83301 12.13038,13.6184 6.92824,17.92772 -5.54735,4.5474 -21.04661,-6.91634 -30.35569,-26.62969 l -8.36865,6.28542 c 1.988,5.17832 6.48778,12.70177 12.55892,19.08242 6.82111,7.19014 14.30885,11.89229 20.96329,13.20176 5.26166,1.04756 10.51141,0.26189 13.92791,-2.95225 8.63054,-7.98771 5.48783,-19.63001 -8.03533,-33.86743 l -5.60688,-5.91638 c -6.21399,-6.57112 -3.67839,-10.28523 -1.27375,-10.83282 8.60674,-2.03562 24.4036,13.6303 27.40346,24.30836 2.5594,-1.92848 8.14247,-6.04733 8.14247,-6.04733 -5.24975,-14.89215 -22.73701,-29.8081 -36.14114,-29.8081 -3.6903,0 -7.07109,1.1309 -9.80905,3.7022" />
    <path
       d="m 806.67566,546.07199 c -3.84505,-0.34475 -7.70201,-0.5714 -11.60659,-0.5714 -3.95219,0 -7.85676,0.2257 -11.70182,0.5714 -0.88091,48.36674 -12.68987,89.6862 -32.65321,124.72025 l 88.61483,0 c -19.98714,-35.03405 -31.7723,-76.35351 -32.65321,-124.72025 m 95.12643,197.2168 c -10.22571,15.52307 -23.71316,28.6653 -39.52193,38.48626 0.60759,-3.36889 0.90472,-6.8211 0.90472,-10.34474 0,-35.18881 -30.48665,-63.71126 -68.11581,-63.71126 -37.65296,0 -68.13961,28.52245 -68.13961,63.71126 0,3.52364 0.30951,6.97585 0.89234,10.34474 -15.82067,-9.82096 -29.32003,-22.987 -39.54574,-38.52197 23.65364,-19.09433 43.85506,-41.50993 59.53288,-67.49679 l 94.43598,0 c 15.68973,26.01067 35.91496,48.43817 59.55669,67.5325"
       style="fill:#ee293d;fill-opacity:1;fill-rule:nonzero;stroke:none"
       id="path8351"
       inkscape:connector-curvature="0" />
    <path
       d="m 683.93494,804.06923 -7.39251,3.48793 5.13071,4.34503 2.2618,-7.83296 z m -2.76178,20.78472 -2.73796,-2.03562 2.32132,-7.64249 -7.29727,-6.20208 -7.26156,3.46412 -2.45227,-2.2618 21.41565,-10.09476 2.59511,2.22609 -6.58302,22.54654 z"
       style="fill:#ffffff;fill-opacity:1;fill-rule:nonzero;stroke:none"
       id="path9627"
       inkscape:connector-curvature="0" />
    <path
       d="m 702.30635,813.09451 -11.98753,18.17771 -2.58321,-1.7023 11.98753,-18.142 2.58321,1.66659 z"
       style="fill:#ffffff;fill-opacity:1;fill-rule:nonzero;stroke:none"
       id="path9631"
       inkscape:connector-curvature="0" />
    <path
       d="m 711.70409,819.07232 3.72601,20.30856 0.0476,0.0381 7.58297,-14.40407 2.70226,1.45231 -9.94001,18.96338 -2.70225,-1.26184 -3.74982,-20.49903 -0.0571,-0.0667 -7.6663,14.63025 -2.67845,-1.53564 10.01143,-19.0348 2.72606,1.41659 z"
       style="fill:#ffffff;fill-opacity:1;fill-rule:nonzero;stroke:none"
       id="path9635"
       inkscape:connector-curvature="0" />
    <path
       d="m 748.7528,834.89157 -1.02376,2.92843 -7.0949,-2.46417 -6.09495,17.48727 -2.89271,-0.99996 6.05923,-17.52297 -7.0949,-2.45227 1.03567,-2.89272 17.10632,5.91639 z"
       style="fill:#ffffff;fill-opacity:1;fill-rule:nonzero;stroke:none"
       id="path9639"
       inkscape:connector-curvature="0" />
    <path
       d="m 795.80094,850.89271 9.84477,0.16666 -0.10761,5.69021 c -0.0571,3.83315 -4.33313,6.38064 -9.67811,6.2497 -5.72592,-0.0571 -11.6423,-4.11885 -11.51136,-11.38041 0.0952,-6.10685 5.05929,-11.03519 11.9161,-10.93996 5.095,0.0952 7.73773,2.8213 8.97576,4.02362 l -2.17846,2.16656 c -1.03567,-1.01185 -2.66654,-3.01176 -6.54731,-3.08318 -5.6664,-0.0952 -9.01148,3.52364 -9.0829,8.04723 -0.0667,4.19028 3.17842,8.02343 8.61864,8.11866 3.6903,0.0381 6.36874,-1.63087 6.40445,-3.48792 l 0.0381,-2.39275 -6.72587,-0.0952 0.0381,-3.08319 z"
       style="fill:#ffffff;fill-opacity:1;fill-rule:nonzero;stroke:none"
       id="path9643"
       inkscape:connector-curvature="0" />
    <path
       d="m 829.16612,837.93809 0.46474,3.08319 -14.32075,2.04752 0.79806,5.55926 7.21394,-1.03567 0.42855,3.08319 -7.20204,0.99995 0.93996,6.45208 14.82072,-2.10705 0.43998,3.04748 -17.89201,2.54749 -3.02366,-21.18946 17.33251,-2.48798 z"
       style="fill:#ffffff;fill-opacity:1;fill-rule:nonzero;stroke:none"
       id="path9647"
       inkscape:connector-curvature="0" />
    <path
       d="m 840.38454,838.25331 1.82134,6.01162 9.15432,-2.71415 c 2.17847,-0.65521 3.1189,-2.20228 2.52369,-4.21409 -0.71425,-2.32132 -2.67844,-2.35703 -4.38074,-1.84515 l -9.11861,2.76177 z m 8.2496,-5.6902 c 3.27366,-1.01186 6.94015,-0.25047 8.17818,3.89267 1.34518,4.46407 -1.20232,6.77349 -2.89271,7.42822 l 6.69015,7.20204 -3.23794,1.16661 -6.65444,-7.29727 -7.61869,2.2856 2.58321,8.59483 -2.96414,0.84567 -6.15447,-20.49902 12.07085,-3.61888 z"
       style="fill:#ffffff;fill-opacity:1;fill-rule:nonzero;stroke:none"
       id="path9651"
       inkscape:connector-curvature="0" />
    <path
       d="m 895.73723,812.46597 1.57136,8.05914 5.46402,-3.94029 -7.03538,-4.11885 z m 19.2967,7.73773 -2.69034,2.16656 -6.61874,-4.04743 -7.82105,5.52355 1.51183,7.77344 -2.73797,1.72611 -4.52359,-23.04652 2.79749,-1.95229 20.08237,11.85658 z"
       style="fill:#ffffff;fill-opacity:1;fill-rule:nonzero;stroke:none"
       id="path9655"
       inkscape:connector-curvature="0" />
    <path
       d="m 908.35178,797.68572 14.64216,15.72544 -2.32132,2.04752 -14.57074,-15.66592 2.2499,-2.10704 z"
       style="fill:#ffffff;fill-opacity:1;fill-rule:nonzero;stroke:none"
       id="path9659"
       inkscape:connector-curvature="0" />
    <path
       d="m 916.85137,789.28898 20.60616,1.4166 0.0476,-0.0381 -12.10657,-10.88043 2.07133,-2.29751 15.90401,14.30884 -1.84515,2.29751 -20.82044,-1.4166 -0.0381,0.0381 12.23751,11.03519 -2.16656,2.20227 -15.97543,-14.36836 2.08323,-2.29751 z"
       style="fill:#ffffff;fill-opacity:1;fill-rule:nonzero;stroke:none"
       id="path9663"
       inkscape:connector-curvature="0" />
    <path
       d="m 880.57224,818.0638 -2.76177,1.38089 -0.46474,15.22546 -12.55893,-8.54721 -2.76177,1.40469 9.39241,19.24909 2.79748,-1.22613 -6.49969,-13.71364 0.0476,-0.019 12.45179,8.42817 0.46474,-15.01119 0.0571,-0.0286 7.28537,13.29698 2.69034,-1.49993 -10.14237,-18.93957 z"
       style="fill:#ffffff;fill-opacity:1;fill-rule:nonzero;stroke:none"
       id="path9667"
       inkscape:connector-curvature="0" />
    <path
       d="m 673.06965,790.45178 c -1.73802,-6.54731 -8.38056,-12.91605 -13.38032,-12.91605 -1.1309,0 -2.11895,0.30951 -2.98795,0.92853 -1.01186,0.76186 -1.60707,1.76182 -1.76182,2.99985 -0.2857,1.88087 0.47616,4.29742 2.04752,6.40446 l 2.29751,3.08319 c 1.74991,2.33322 3.45221,4.80929 3.10699,6.76158 -0.13047,0.79806 -0.5714,1.4166 -1.30946,1.89277 -0.39236,0.25046 -0.8571,0.38093 -1.38089,0.38093 -3.09509,0 -8.34484,-5.51164 -10.92805,-13.43984 l -0.0286,-0.15523 -2.2737,2.14276 -0.019,0.0381 0,0.0571 c 0.47616,1.9761 1.84515,5.15452 4.10694,8.20199 2.39275,3.17842 5.095,5.3807 7.6544,6.20209 0.83329,0.24951 1.63088,0.36855 2.39274,0.36855 1.09519,0 2.10705,-0.2857 2.85701,-0.80948 1.24994,-0.88091 1.95229,-2.04752 2.16656,-3.42841 0.39237,-2.52369 -0.93995,-5.85687 -3.9879,-9.90429 l -1.99991,-2.71416 c -1.61897,-2.13085 -1.55945,-3.51174 -1.20232,-4.33312 0.30951,-0.69045 0.92853,-1.16662 1.65468,-1.26185 l 0.36856,0 c 3.6903,0 8.88053,6.10685 10.2376,10.82091 l 0.019,0.13047 0.11904,-0.10761 c 0.76187,-0.40474 1.64278,-0.90472 2.17847,-1.21423 l 0.0762,-0.0381 -0.0286,-0.0952 z"
       style="fill:#ffffff;fill-opacity:1;fill-rule:nonzero;stroke:none"
       id="path9671"
       inkscape:connector-curvature="0" />
    <path
       d="m 767.20907,851.806 -7.6425,-1.7023 0.71426,-3.04747 7.59487,1.7023 -0.66663,3.04747 z"
       style="fill:#ffffff;fill-opacity:1;fill-rule:nonzero;stroke:none"
       id="path9675"
       inkscape:connector-curvature="0" />
    <path
       d="m 676.72004,807.34145 7.59488,-3.9879 -2.47607,8.33293 -5.11881,-4.34503 z m 8.39246,-7.6663 -21.62992,10.27332 2.40465,2.14276 0.43997,-0.13047 0.0286,0 7.0711,-3.46412 7.71392,6.51159 -2.41656,7.52345 0.0571,0.0571 -0.0571,0.19047 2.30942,1.63087 0,-0.0286 0.01,0.0286 0.0571,-0.21427 0.0381,0.0381 0,-0.0381 0.0381,0.0381 6.65444,-22.21323 -2.71415,-2.34512 z"
       style="fill:#b1bcd1;fill-opacity:1;fill-rule:nonzero;stroke:none"
       id="path9983"
       inkscape:connector-curvature="0" />
    <path
       d="m 702.45882,812.87833 -2.78558,-1.82134 -0.01,0.019 -0.0381,-0.019 -12.10657,18.39198 2.73797,1.72611 0.0286,0 0.0952,-0.17809 0.0381,0.019 12.04705,-18.14199 z"
       style="fill:#b1bcd1;fill-opacity:1;fill-rule:nonzero;stroke:none"
       id="path9987"
       inkscape:connector-curvature="0" />
    <path
       d="m 722.95118,824.66729 -7.60679,14.49931 -3.7022,-20.4395 -2.5475,-1.35708 -0.17904,-0.0952 0,0.0381 -0.019,-0.0381 -10.10667,19.28479 2.28561,1.28566 0.2857,0.0952 0.0857,-0.25046 0.01,-0.0762 0.0952,0.0762 0.0381,0 0.0571,-0.15523 0.0571,0.019 0,-0.019 0.0381,0.019 7.59487,-14.49931 3.79744,19.8562 2.69035,1.24994 0,-0.0381 0.0476,0.0381 0.0286,-0.0571 0.0667,0.0286 0.0476,0 0.0762,-0.11904 0.0857,0 9.72573,-17.80868 -2.94034,-1.53564 z"
       style="fill:#b1bcd1;fill-opacity:1;fill-rule:nonzero;stroke:none"
       id="path9991"
       inkscape:connector-curvature="0" />
    <path
       d="m 731.73838,828.66425 -1.03567,3.04747 7.45203,2.39274 -6.21399,17.26109 0.0667,0.0381 -0.0667,0.19047 2.49988,0.71425 0.0286,0 0.0667,-0.25047 0.0571,0.0381 0.0381,0 5.86876,-17.10633 7.17823,2.39274 0.0381,0 0.0952,-0.19046 0.0381,0.019 0.0286,0 0.97615,-2.60702 -17.10633,-5.94019 z"
       style="fill:#b1bcd1;fill-opacity:1;fill-rule:nonzero;stroke:none"
       id="path9995"
       inkscape:connector-curvature="0" />
    <path
       d="m 832.2754,855.76867 -0.019,-0.0571 -0.22665,0 -14.57074,2.07133 -0.97614,-6.22589 7.14251,-1.03567 -0.0286,-0.22665 0.13047,-0.019 -0.43998,-2.98795 -0.16665,0.0286 -0.01,-0.0286 -0.0381,0.0286 0,-0.0286 -7.04728,0.97614 -0.78568,-5.32118 14.1898,-2.0118 -0.0476,-0.25047 0.16666,0 -0.43998,-3.04747 -0.23808,0 -17.08252,2.47607 3.03557,21.20137 0.0286,0 0.0571,0.25047 17.65392,-2.57131 -0.0381,-0.2257 0.16665,0 -0.41712,-2.98796 z"
       style="fill:#b1bcd1;fill-opacity:1;fill-rule:nonzero;stroke:none"
       id="path9999"
       inkscape:connector-curvature="0" />
    <path
       d="m 897.07526,820.23608 -1.80943,-8.36865 7.51154,4.34503 -5.70211,4.02362 z m 11.99943,-3.3927 -14.39217,-8.67816 -2.94033,1.99991 4.65454,23.36793 2.60701,-1.72611 0.23809,-0.19046 -1.47612,-7.83296 7.9401,-5.84496 6.60682,4.02361 0.0286,0 2.36894,-1.57135 -0.0762,-0.0571 0.19047,-0.13142 -5.74973,-3.35698 z"
       style="fill:#b1bcd1;fill-opacity:1;fill-rule:nonzero;stroke:none"
       id="path10003"
       inkscape:connector-curvature="0" />
    <path
       d="m 908.1775,797.49716 -2.2499,2.10704 14.7493,15.53498 0.0381,0 1.95228,-1.60707 -0.01,-0.019 0.14285,-0.16666 -14.61835,-15.84448 z"
       style="fill:#b1bcd1;fill-opacity:1;fill-rule:nonzero;stroke:none"
       id="path10007"
       inkscape:connector-curvature="0" />
    <path
       d="m 943.21116,791.83743 -15.93971,-14.55883 -2.08324,2.33322 12.93986,11.28518 -21.61802,-1.64278 -0.0476,0 -1.89277,2.14275 16.20161,14.21361 0.01,-0.0381 0,0.0381 1.30946,-1.7023 -0.0381,-0.0381 0.17809,-0.14285 -12.02324,-11.29708 21.26089,1.35708 0.01,0 1.59516,-1.76182 -0.01,-0.0381 0.14285,-0.15523 z"
       style="fill:#b1bcd1;fill-opacity:1;fill-rule:nonzero;stroke:none"
       id="path10011"
       inkscape:connector-curvature="0" />
    <path
       d="m 760.33025,846.77767 -0.71425,3.23794 7.49964,1.7023 0.0381,0 0.0381,-0.22666 0.0476,0.0381 0,-0.0381 0.0286,0.0381 0.70282,-3.04748 -7.63059,-1.7023 z"
       style="fill:#b1bcd1;fill-opacity:1;fill-rule:nonzero;stroke:none"
       id="path10015"
       inkscape:connector-curvature="0" />
    <path
       d="m 840.01227,838.25331 9.53526,-3.23794 c 0.42855,-0.11904 0.88091,-0.2257 1.30946,-0.25046 1.28565,-0.0952 2.5475,0.75044 3.07128,2.47607 0.0857,0.22666 0.10666,0.44093 0.14285,0.66664 0.10762,1.57135 -0.93995,2.73796 -2.82129,3.29746 l -9.49955,2.8332 -1.73801,-5.78544 z m 15.97543,3.80935 c 0.90472,-1.22614 1.45231,-3.08319 0.66663,-5.6664 -0.60759,-2.04752 -1.60706,-3.33318 -2.99985,-3.89267 -0.84568,-0.38094 -1.66659,-0.69045 -2.60702,-0.66664 -0.80949,0 -1.66659,0.11904 -2.48798,0.38094 l -12.13038,3.61887 3.89268,12.70178 2.42845,8.01152 0.0381,0 0.21427,-0.0476 0.13047,0.0476 2.20228,-0.69044 -2.63083,-8.67816 8.2258,-2.66654 6.44017,7.51155 0.0381,0 0.23809,-0.0952 0.0476,0.0952 2.5475,-1.10709 -6.79729,-7.22585 c 0.70282,-0.34474 1.91657,-0.72568 2.54749,-1.63087"
       style="fill:#b1bcd1;fill-opacity:1;fill-rule:nonzero;stroke:none"
       id="path10019"
       inkscape:connector-curvature="0" />
    <path
       d="m 664.90813,800.95604 c 0.40474,-0.6314 0.20285,-1.72611 0.30951,-2.47607 0.38093,-2.52369 -0.80949,-5.22594 -3.83315,-9.24956 l -2.01181,-2.71416 c -1.60707,-2.13085 -1.20232,-3.77363 -0.84472,-4.58311 0.0571,-0.0952 0.15428,-0.22571 0.21427,-0.34475 0.35713,-0.41617 0.82187,-0.66663 1.33327,-0.72568 0.10762,0 0.21428,-0.0381 0.32189,-0.0381 3.65459,0.0381 9.13052,5.85686 10.4876,10.57093 l 0.0381,0.13142 0.019,0 0.13142,-0.0762 c 0.74949,-0.43998 1.35708,-0.69044 1.89277,-0.97614 l 0.0762,-0.0571 -0.0286,-0.0762 0,-0.019 -0.0476,0 0.0476,-0.0952 c -1.4166,-5.3807 -5.964,-10.65426 -10.36855,-12.39227 -1.03566,-0.43998 -2.05943,-0.6552 -3.02367,-0.6552 l -0.019,0 c -1.1309,0 -2.13085,0.3095 -2.99986,0.93995 -0.96424,0.76187 -1.45231,1.7023 -1.63087,2.92843 -0.0667,0.46474 -0.0667,0.99995 0,1.54755 0.13142,1.63087 1.48802,4.01171 2.73796,5.71401 l 1.91658,2.8332 c 1.51183,2.01181 2.63082,2.79749 2.78558,4.58312 0.0857,0.76186 -0.01,1.35707 -0.0476,1.54754 -0.16666,0.88091 -0.52378,1.51183 -1.24994,1.9761 -0.40474,0.26189 -0.98805,0.41712 -1.48802,0.41712 -0.36856,0 -0.78568,-0.0952 -1.17852,-0.25046 -3.1189,-1.26185 -7.33298,-6.29732 -9.53526,-13.15414 l -0.13047,-0.30951 -0.11904,0.13047 -2.2737,2.13085 -0.0381,0.0381 c 0,0 0.0571,0.19046 0.0762,0.25046 0,0 1.99991,4.96405 4.27361,8.02343 2.39274,3.16651 4.77358,5.24975 7.32108,6.05923 0.84567,0.2857 1.64278,0.41617 2.40464,0.41617 l 0.0286,0 c 1.1309,0 2.20228,0.0381 2.97605,-0.5114 0.61902,-0.43998 1.1309,-0.96424 1.48803,-1.53564"
       style="fill:#b1bcd1;fill-opacity:1;fill-rule:nonzero;stroke:none"
       id="path10023"
       inkscape:connector-curvature="0" />
    <path
       d="m 795.85818,850.54892 -0.0476,0 0.0476,2.98795 0.0381,0 0,0.19047 0.20285,0 6.41636,0.11904 -0.14285,2.29751 c -0.0381,1.79753 -2.66654,3.48793 -6.38065,3.42841 -0.2857,0 -0.5714,0 -0.82091,-0.0381 -2.64273,-0.30951 -4.92834,-1.46422 -6.34494,-3.26175 -1.29755,-1.63088 -1.51183,-2.51179 -1.48802,-4.59502 0.0381,-1.38089 0.34474,-2.70226 0.98805,-3.86887 1.40469,-2.45226 4.45217,-4.2736 8.26151,-4.21408 3.79744,0.0952 5.4045,2.08323 6.42826,3.08318 l 0.01,-0.0286 0.0286,0.0286 0.0762,-0.0952 c 0.0381,0.0381 0.0667,0.0667 0.10667,0.0952 l 0.0286,0 2.17846,-2.16656 -0.01,0 0.0952,-0.0952 c -0.32093,-0.2857 -0.73806,-0.69045 -1.27375,-1.16661 -1.49992,-1.28566 -3.95219,-2.85701 -7.82105,-2.89272 l -0.25047,0 c -6.85681,-0.11905 -11.79705,4.80929 -11.91609,10.90424 0,0.51236 0.0381,0.98805 0.0762,1.4285 0.53521,6.47589 6.05924,9.99953 11.43993,10.08286 l 0.0952,0 c 0.0381,0 0.0857,0.0381 0.13047,0.0381 l 0.0286,0 c 4.02362,0.0667 7.29727,-1.32137 8.74958,-3.64268 0.48855,-0.82092 0.77425,-1.7023 0.79806,-2.71416 l 0.0857,-5.71401 -9.78525,-0.19047 z"
       style="fill:#b1bcd1;fill-opacity:1;fill-rule:nonzero;stroke:none"
       id="path10027"
       inkscape:connector-curvature="0" />
    <path
       d="m 880.42463,817.74762 -2.8332,1.4166 -0.47617,15.40403 -12.58273,-8.67816 -2.66654,1.32137 5.47593,10.88043 4.17837,8.4996 0.0476,0 1.57135,-0.70283 0.86853,-0.55902 -6.70206,-14.02314 12.70178,8.54721 0,-0.0381 0.0286,0.0381 0,-0.25046 0.0857,0.0381 0.0381,0 0.40474,-11.95181 0.10762,-2.5475 0.0286,-0.0381 7.30917,13.21366 0.0762,-0.15523 0.019,0.0571 0.0381,0 2.17847,-1.57136 -9.88049,-18.90386 z"
       style="fill:#b1bcd1;fill-opacity:1;fill-rule:nonzero;stroke:none"
       id="path10031"
       inkscape:connector-curvature="0" />
    <path
       d="m 760.33025,846.90147 -0.72663,3.14271 0,0.0381 7.48774,1.6904 0.0286,0 0.0381,-0.11904 0.0571,0 0.69045,-3.02367 -7.57107,-1.72611 z"
       style="fill:#ffffff;fill-opacity:1;fill-rule:nonzero;stroke:none"
       id="path10035"
       inkscape:connector-curvature="0" />
    <path
       d="m 796.04569,850.70796 -0.23808,0 0.0476,3.02366 0,0.15523 6.76158,0.0952 -0.19047,2.22608 c -0.15523,1.85706 -2.66654,3.48793 -6.29732,3.48793 -5.3926,-0.0857 -8.95195,-3.76172 -8.88053,-7.952 0.0381,-1.63087 0.52379,-3.17842 1.35708,-4.42836 0.45236,-0.66664 1.29756,-1.35708 1.94039,-1.83325 0.19046,-0.15523 0.38093,-0.27332 0.59521,-0.43998 1.4166,-0.84567 3.20222,-1.30946 5.27355,-1.24994 3.90458,0.0286 5.52355,1.94039 6.55922,2.98796 l 0.0381,-0.0381 0.019,0.0381 0.01,-0.0381 c 0,0.0381 0.0381,0.0381 0.0476,0.0571 l 0.0762,-0.0571 0,0.0381 2.16657,-2.20228 0.0571,-0.0667 c -1.21423,-1.21423 -3.86887,-3.9522 -8.99957,-4.04743 l -0.21428,0 c -6.85682,-0.0952 -11.80896,4.8331 -11.9161,10.93996 0,0.0571 0.01,0.0952 0.01,0.16665 0,0.0286 -0.01,0.0286 -0.01,0.0571 -0.13142,7.26156 5.90448,11.18995 11.6304,11.32089 2.39274,0 4.40455,-0.41712 6.02352,-1.29755 0.4876,-0.21428 0.91615,-0.52379 1.28565,-0.80949 0.59521,-0.47617 1.09519,-1.03566 1.46422,-1.60706 0.49998,-0.82187 0.78568,-1.66659 0.80949,-2.70226 l 0.16665,-5.70211 -9.59478,-0.11904 z"
       style="fill:#ffffff;fill-opacity:1;fill-rule:nonzero;stroke:none"
       id="path10039"
       inkscape:connector-curvature="0" />
    <path
       d="m 664.25016,801.80743 c 0.78568,-0.78568 0.78568,-2.14275 0.90472,-3.17842 0.38093,-2.53559 -0.78568,-5.24975 -3.79744,-9.27337 l -2.02371,-2.73796 c -1.60707,-2.14276 -1.19042,-3.74982 -0.86948,-4.5236 0.15523,-0.32093 0.35712,-0.5714 0.59521,-0.7971 0.27427,-0.21428 0.63044,-0.3457 0.97614,-0.38094 l 0.30951,0 c 3.6784,0 9.15432,5.83306 10.5114,10.54712 l 0.0286,0.11904 0.0381,0 0.11904,-0.0571 c 0.75044,-0.43998 1.35708,-0.69044 1.92848,-0.97614 l 0.15523,-0.0381 c -0.67902,-2.44036 -1.988,-5.095 -3.6784,-7.16633 -2.8332,-3.52364 -6.61873,-6.07114 -9.78525,-6.07114 -1.09518,0 -2.10704,0.32094 -2.95224,0.97614 -0.27427,0.19047 -0.51235,0.38094 -0.69044,0.63045 -0.41712,0.43998 -0.65521,1.01186 -0.88091,1.59516 -0.0952,0.29713 -0.13047,0.51236 -0.15523,0.8571 -0.0381,0.22571 -0.0667,0.49998 -0.0667,0.76187 -0.01,1.74992 1.03566,4.17838 2.44036,5.99972 l 1.988,2.77367 c 1.54754,2.07133 2.96414,3.92839 3.09509,5.71402 0,0.25046 0.0286,0.34474 -0.0667,0.9171 -0.0286,0.15523 -0.15523,0.46474 -0.21427,0.63044 -0.11904,0.34475 -0.30951,0.63045 -0.59521,0.88091 -0.15523,0.13143 -0.29713,0.25047 -0.47617,0.38094 -0.40474,0.25046 -0.84567,0.36855 -1.38089,0.36855 -1.73801,0 -4.11885,-1.72611 -6.36874,-4.61883 -1.77373,-2.2975 -3.38079,-5.28546 -4.47598,-8.73767 l -0.0857,-0.2619 -2.36893,2.22609 c 0,0 1.10709,4.22599 3.83315,7.84486 2.36893,3.17842 5.21404,5.61878 7.78534,6.44017 0.80949,0.25047 1.61897,0.38094 2.39274,0.38094 l 0.0286,0 c 1.119,0 2.21419,0.0571 2.96415,-0.47617 0.30951,-0.25047 0.5714,-0.47617 0.8571,-0.75044"
       style="fill:#ffffff;fill-opacity:1;fill-rule:nonzero;stroke:none"
       id="path10043"
       inkscape:connector-curvature="0" />
    <path
       d="m 725.79952,826.30341 -0.0762,-0.0571 -2.70225,-1.4166 -0.0286,0.0286 -0.0381,-0.0286 -0.01,0.0286 -7.64249,14.55883 -3.64269,-20.52283 -0.019,-0.0381 -0.0476,0 0,-0.0381 -2.63083,-1.34518 -0.0476,0 -0.0286,0.0191 -9.98762,19.05862 -0.01,0.0571 0.0476,0.0381 2.58321,1.19042 0.0857,-0.17904 0.0571,0.0286 7.73773,-14.7731 3.84505,20.1538 2.69035,1.19042 0.0952,-0.15523 0.0762,0.0381 9.73763,-17.80868 -0.0476,-0.0286 z"
       style="fill:#ffffff;fill-opacity:1;fill-rule:nonzero;stroke:none"
       id="path10047"
       inkscape:connector-curvature="0" />
    <path
       d="m 684.31206,803.44259 -2.47607,8.39246 -5.16642,-4.33313 7.64249,-4.05933 z m 3.48793,-1.32137 -2.63083,-2.23798 -21.52278,10.18999 2.23799,2.02371 7.51155,-3.46412 7.73772,6.51159 -2.41655,7.60678 0,0.0381 0.019,0.0286 -0.019,0.0952 2.29751,1.64278 0.0571,-0.26189 0.0381,0.0571 0.0286,0 6.66635,-22.22513 z"
       style="fill:#ffffff;fill-opacity:1;fill-rule:nonzero;stroke:none"
       id="path10051"
       inkscape:connector-curvature="0" />
    <path
       d="m 702.40168,812.9688 -2.71416,-1.78563 -12.05895,18.33246 2.63083,1.66659 0.0952,-0.0381 12.04705,-18.17771 z"
       style="fill:#ffffff;fill-opacity:1;fill-rule:nonzero;stroke:none"
       id="path10055"
       inkscape:connector-curvature="0" />
    <path
       d="m 731.6859,828.78615 -0.93995,2.89271 -0.0381,0.0952 7.44013,2.51178 -6.21399,17.3087 0,0.0286 0.0286,0.0381 -0.0286,0.0952 2.49988,0.65521 0.0667,-0.15523 0.0286,0 0.0286,-0.0381 0.01,0.0381 5.85687,-17.16585 7.26156,2.44036 0.0667,-0.17809 0.0762,0.0952 -0.0286,-0.13142 0.0762,0 0.93996,-2.60702 -17.13014,-5.91638 z"
       style="fill:#ffffff;fill-opacity:1;fill-rule:nonzero;stroke:none"
       id="path10059"
       inkscape:connector-curvature="0" />
    <path
       d="m 832.2754,855.80295 -0.21428,0.019 -14.64216,2.08324 -0.96424,-6.2259 7.13062,-1.01186 -0.0476,-0.15523 0,-0.019 0.0571,0 0.0857,-0.0381 -0.019,-0.0762 0.0667,0 -0.43998,-3.04748 -0.17809,0.0381 -7.13061,1.01185 -0.77425,-5.32117 14.17789,-2.01181 -0.0476,-0.13047 0,-0.0286 0.0762,0 -0.0286,-0.0381 0.0952,0 0,-0.0667 0.0952,-0.0286 -0.46474,-3.04747 -0.20285,0.0381 0,-0.0381 -17.07061,2.51178 0,0.21428 0.0286,0.2257 2.98795,20.87996 0.0381,0.0762 17.6182,-2.5475 -0.01,-0.0952 0.0381,0 0,-0.0381 0.0952,0 0,-0.0952 0.0381,0 -0.38093,-3.04748 z"
       style="fill:#ffffff;fill-opacity:1;fill-rule:nonzero;stroke:none"
       id="path10063"
       inkscape:connector-curvature="0" />
    <path
       d="m 849.50505,835.11156 c 1.7023,-0.47617 3.70221,-0.0381 4.40456,2.29751 0.0571,0.21427 0.10761,0.42855 0.13047,0.61902 0.0286,0.2257 0.0286,0.43998 0,0.60759 0,0.21427 -0.019,0.43998 -0.0952,0.59521 -0.32093,0.97614 -1.32136,1.69039 -2.67844,2.10704 l -9.55907,2.8332 -1.76182,-5.79735 9.55907,-3.26175 z m 3.88077,8.71387 c 0.67806,-0.32189 1.89277,-0.72568 2.51179,-1.60707 0.91614,-1.22613 1.49992,-3.08318 0.70282,-5.72591 -0.55997,-1.85706 -1.4285,-3.107 -2.70225,-3.77363 -1.60707,-0.84568 -3.47603,-0.90472 -5.33308,-0.38094 l -12.07086,3.61888 1.78563,5.88067 4.44027,14.71358 0.98805,-0.25046 1.52373,-0.40474 -2.5594,-8.58293 8.2258,-2.71415 6.44017,7.58297 2.52369,-1.09519 0,-0.0381 0.23808,-0.0571 -6.71396,-7.16633 z"
       style="fill:#ffffff;fill-opacity:1;fill-rule:nonzero;stroke:none"
       id="path10067"
       inkscape:connector-curvature="0" />
    <path
       d="m 897.0267,820.35798 -1.82135,-8.36865 7.57107,4.38074 -5.74972,3.98791 z m -2.23799,-12.13038 -2.85701,1.9761 4.60692,23.23699 2.46417,-1.63088 0.17904,-0.13047 -1.46422,-7.76153 7.96391,-5.85687 6.60683,4.05933 2.34513,-1.59516 -0.0476,-0.0381 0.21427,-0.15523 -20.01095,-12.10657 z"
       style="fill:#ffffff;fill-opacity:1;fill-rule:nonzero;stroke:none"
       id="path10071"
       inkscape:connector-curvature="0" />
    <path
       d="m 908.23664,797.58858 -2.2499,2.08324 14.67788,15.6183 1.95229,-1.59516 -0.01,-0.0381 0.14285,-0.17904 -14.51121,-15.8921 z"
       style="fill:#ffffff;fill-opacity:1;fill-rule:nonzero;stroke:none"
       id="path10075"
       inkscape:connector-curvature="0" />
    <path
       d="m 943.16355,791.93266 -15.82068,-14.59454 -2.07133,2.29751 12.83272,11.3447 -21.48707,-1.72611 -1.988,2.20227 16.10638,14.27313 1.30946,-1.66658 -0.01,-0.0286 0.15524,-0.19047 -12.02324,-11.28518 21.26089,1.34518 1.57135,-1.76182 0.16666,-0.21428 z"
       style="fill:#ffffff;fill-opacity:1;fill-rule:nonzero;stroke:none"
       id="path10079"
       inkscape:connector-curvature="0" />
    <path
       d="m 880.48653,817.87333 -2.76177,1.4166 -0.47617,15.49926 -7.64249,-5.15451 -4.99977,-3.64269 -0.33331,0.15523 -2.2737,1.16661 -0.0571,0 0.0762,0.13047 9.49955,19.2967 2.21418,-1.28565 0.19047,-0.0952 -6.72587,-14.08266 5.80924,3.9879 6.97586,4.71406 0,-0.17808 0.0381,0 0,-0.0762 0.0571,0.0762 0,-0.0762 0.0381,0.0762 0.38093,-10.51141 0.15523,-4.42836 1.44041,2.79749 5.91639,10.74948 0.0667,-0.0571 0.0286,0 1.73801,-1.47612 0.14285,-0.0571 0.19047,-0.0952 -9.67811,-18.84434 z"
       style="fill:#ffffff;fill-opacity:1;fill-rule:nonzero;stroke:none"
       id="path10083"
       inkscape:connector-curvature="0" />
    <path
       inkscape:connector-curvature="0"
       id="path10103"
       style="fill:url(#radialGradient10097-7-7);fill-rule:evenodd;stroke:none"
       d="m 685.16669,800.07713 0,0 2.59511,2.23799 0,0.019 -6.59492,22.51083 -2.73797,-2.04752 2.32132,-7.63059 -7.29727,-6.19018 -7.24965,3.45221 -2.46417,-2.2737 0,0 21.42755,-10.08285 z m -8.63054,7.48774 5.14261,4.33313 2.2618,-7.83296 -7.40441,3.49983 z" />
    <path
       inkscape:connector-curvature="0"
       id="path10123"
       style="fill:url(#radialGradient10117-3-6);fill-rule:evenodd;stroke:none"
       d="m 687.73799,829.57573 11.98753,-18.142 2.58321,1.66659 0,0 -11.99943,18.1658 -2.57131,-1.69039 z" />
    <path
       inkscape:connector-curvature="0"
       id="path10143"
       style="fill:url(#radialGradient10137-7-6);fill-rule:evenodd;stroke:none"
       d="m 698.96365,836.68253 10.02333,-19.0229 2.71416,1.4166 3.72601,20.32046 0.0476,0.01 7.58297,-14.39217 2.70225,1.44041 0,0 -9.92809,18.96338 -2.71416,-1.26184 -3.73792,-20.49903 -0.0571,-0.0571 -7.6782,14.63026 -2.67845,-1.54755 z" />
    <path
       inkscape:connector-curvature="0"
       id="path10163"
       style="fill:url(#radialGradient10157-1-7);fill-rule:evenodd;stroke:none"
       d="m 734.52148,852.84843 -2.88081,-0.99995 6.07114,-17.52298 -7.0949,-2.45226 1.02376,-2.89272 17.11823,5.91638 0,0.01 -1.03567,2.90462 -7.0949,-2.46417 -6.09494,17.49917 -0.01,0 z" />
    <path
       inkscape:connector-curvature="0"
       id="path10183"
       style="fill:url(#radialGradient10177-4-7);fill-rule:evenodd;stroke:none"
       d="m 805.63714,851.52706 -0.10761,5.21404 c -0.0571,3.84506 -4.32122,6.38065 -9.66621,6.26161 -5.72592,-0.0571 -11.6542,-4.11885 -11.51135,-11.38041 0.0857,-6.04733 4.96404,-10.93996 11.71372,-10.93996 l 0.20285,0 c 5.08309,0.0857 7.73773,2.8213 8.96386,4.02362 l -2.16656,2.16656 c -1.04757,-1.01185 -2.67845,-3.02366 -6.54731,-3.07128 -5.6664,-0.10761 -9.02338,3.51174 -9.09481,8.04724 -0.0571,4.17837 3.19033,8.01152 8.61864,8.11866 3.70221,0.01 6.38065,-1.64278 6.40446,-3.51174 l 0.0476,-2.38084 -6.72588,-0.0952 0.0381,-3.09509 9.83286,0.17808 0,0.46474 z" />
    <path
       inkscape:connector-curvature="0"
       id="path10203"
       style="fill:url(#radialGradient10197-8-3);fill-rule:evenodd;stroke:none"
       d="m 829.11222,837.94438 0.0571,0 0.46378,3.07128 -14.33265,2.04752 0.80949,5.57116 7.20204,-1.04757 0.43997,3.08319 -7.20203,1.01186 0.92852,6.45207 14.83263,-2.10704 0.42855,3.04747 -17.892,2.5475 0,0 -3.01177,-21.20137 17.27299,-2.47607 z" />
    <path
       inkscape:connector-curvature="0"
       id="path10223"
       style="fill:url(#radialGradient10217-9-5);fill-rule:evenodd;stroke:none"
       d="m 850.9207,832.15894 0.49998,0 c 2.36893,0.0857 4.51169,1.32136 5.4045,4.29741 1.33327,4.47598 -1.21423,6.77349 -2.90462,7.42822 l 6.69016,7.20204 -3.23795,1.16661 -6.65444,-7.30918 -7.61869,2.29751 2.58321,8.59483 -2.97604,0.84568 -6.15447,-20.48712 0,-0.01 12.07085,-3.61887 c 0.75044,-0.23809 1.52374,-0.36856 2.29751,-0.40475 z m -10.54712,6.09495 1.83325,6.01161 9.16623,-2.70225 c 2.15466,-0.66663 3.10699,-2.21418 2.49988,-4.22599 -0.69044,-2.32132 -2.66654,-2.34512 -4.36884,-1.85705 l -9.13052,2.77368 z" />
    <path
       inkscape:connector-curvature="0"
       id="path10243"
       style="fill:url(#radialGradient10237-7-2);fill-rule:evenodd;stroke:none"
       d="m 894.94241,808.35055 0.019,0 20.05857,11.85658 -2.67844,2.16656 -6.63064,-4.05933 -7.82106,5.53545 1.52374,7.76153 -2.73797,1.73802 -4.52359,-23.05843 2.78558,-1.94038 z m 0.79711,4.11885 1.57135,8.04723 5.46403,-3.92838 -7.03538,-4.11885 z" />
    <path
       inkscape:connector-curvature="0"
       id="path10263"
       style="fill:url(#radialGradient10257-5-1);fill-rule:evenodd;stroke:none"
       d="m 908.34654,797.68439 0,0 14.64216,15.72544 0,0 -2.30942,2.04752 0,0 -14.58264,-15.66592 0,0 2.2499,-2.10704 z" />
    <path
       inkscape:connector-curvature="0"
       id="path10283"
       style="fill:url(#radialGradient10277-8-3);fill-rule:evenodd;stroke:none"
       d="m 927.46467,777.49487 0,0 15.91591,14.30885 0,0 -1.85705,2.29751 -20.82044,-1.4166 -0.019,0.0381 12.2256,11.03519 -2.16656,2.20227 -15.96353,-14.36836 2.07133,-2.30941 20.60617,1.4166 0.0476,-0.019 -12.09466,-10.88043 2.05943,-2.29751 z" />
    <path
       inkscape:connector-curvature="0"
       id="path10303"
       style="fill:url(#radialGradient10297-9-2);fill-rule:evenodd;stroke:none"
       d="m 862.02731,827.52821 2.76178,-1.4047 12.54702,8.54721 0.47617,-15.22546 2.76177,-1.36899 10.13047,18.90387 0,0.01 -2.67844,1.51183 -7.28537,-13.29698 -0.0571,0.0381 -0.47617,14.99929 -12.43988,-8.42817 -0.0476,0.0286 6.48779,13.71363 -2.78558,1.22613 -9.39241,-19.23718 0,-0.01 z" />
    <path
       inkscape:connector-curvature="0"
       id="path10323"
       style="fill:url(#radialGradient10317-3-9);fill-rule:evenodd;stroke:none"
       d="m 646.44234,788.56578 0.0381,-0.0381 2.2737,-2.13085 0.0286,0.15523 c 2.58321,7.9282 7.83296,13.42793 10.92805,13.42793 0.52378,0 0.98805,-0.13047 1.38088,-0.38093 0.73806,-0.46474 1.17852,-1.09519 1.30947,-1.88086 0.34474,-1.95229 -1.35708,-4.44027 -3.107,-6.76159 l -2.30941,-3.08318 c -1.55945,-2.10705 -2.32132,-4.5236 -2.03562,-6.42827 0.15523,-1.21423 0.75044,-2.22608 1.76182,-2.97605 0.86853,-0.6314 1.84515,-0.93995 2.98795,-0.93995 4.98786,0 11.6304,6.38065 13.38032,12.92795 l 0.01,0.0571 0,0.0381 -0.0667,0.0286 c -0.53521,0.32093 -1.4047,0.82091 -2.16656,1.22613 l -0.11905,0.0952 -0.0381,-0.13047 c -1.34517,-4.71406 -6.5354,-10.80901 -10.2257,-10.80901 l -0.36951,0 c -0.72568,0.0857 -1.34517,0.55998 -1.66659,1.24994 -0.34474,0.82187 -0.41712,2.21418 1.21423,4.34504 l 1.99991,2.71415 c 3.03557,4.04743 4.38074,7.3806 3.9879,9.89239 -0.22665,1.39279 -0.92853,2.53559 -2.16656,3.42841 -0.75044,0.53616 -1.77373,0.82186 -2.86891,0.82186 -0.75044,0 -1.54755,-0.13142 -2.38084,-0.3695 -2.57131,-0.82092 -5.27356,-3.03557 -7.6425,-6.20209 -2.26179,-3.04747 -3.63078,-6.21399 -4.13075,-8.17818 l 0,-0.0952 z" />
    <path
       inkscape:connector-curvature="0"
       id="path10343"
       style="fill:url(#radialGradient10337-7-8);fill-rule:evenodd;stroke:none"
       d="m 760.28216,847.05109 0.0286,0 7.57107,1.7023 -0.67807,3.05937 -0.0286,0 -7.59487,-1.7023 0.70187,-3.05937 z" />
    <path
       inkscape:connector-curvature="0"
       id="path8445"
       style="fill:url(#linearGradient8437-3);stroke:none"
       d="m 793.56629,776.32826 c -0.41617,1.72611 -1.55945,3.21414 -3.04748,4.13076 -0.2857,0.14285 -0.32188,0.27332 -0.19046,0.49997 0.89234,1.78563 2.42845,4.02362 4.30932,5.53546 0.23808,0.21427 0.35712,0.21427 0.42855,0.21427 0.0381,0 0.13142,0 0.40474,-0.21427 1.89277,-1.51184 3.4165,-3.74983 4.32122,-5.53546 0.0952,-0.2257 0.0667,-0.35712 -0.19046,-0.49997 -1.51184,-0.9171 -2.63083,-2.40465 -3.04748,-4.13076 -0.16666,-0.6552 -0.77329,-1.1309 -1.48802,-1.1309 -0.71425,0 -1.33327,0.47617 -1.49993,1.1309 z" />
    <path
       inkscape:connector-curvature="0"
       id="path8467"
       style="fill:url(#linearGradient8459-7);stroke:none"
       d="m 794.53053,730.54473 c -2.48798,1.97609 -8.35675,16.41588 -8.35675,21.26089 0,3.86886 7.86868,14.14218 7.86868,19.71335 0,0.5714 0.43998,1.03566 1.02376,1.03566 0.5714,0 1.03566,-0.46474 1.03566,-1.03566 l 0,-0.0286 c 0,-5.57117 7.83296,-15.82068 7.83296,-19.68954 0,-5.22594 -6.8211,-21.51088 -8.86862,-21.51088 -0.14285,0 -0.32094,0.0952 -0.53522,0.25046 z" />
    <path
       inkscape:connector-curvature="0"
       id="path8489"
       style="fill:url(#linearGradient8481-0);stroke:none"
       d="m 764.91289,765.05499 c 0,4.98786 4.04743,9.03528 9.05909,9.03528 1.47612,0 3.05938,-0.71425 3.80935,-1.55945 1.30946,-1.51183 1.03566,-2.96414 0.90471,-3.27365 -0.14285,-0.34474 -0.47616,-0.23808 -0.5952,-0.23808 -0.11905,0.01 -0.40475,0.0476 -0.53522,0.0476 -1.69039,0 -3.05938,-1.38088 -3.05938,-3.04747 0,-1.66659 1.36899,-3.01176 3.05938,-3.01176 2.95224,0 8.20199,2.85701 11.0471,8.95195 l 0,0.0952 c 0.21427,0.34474 0.59521,0.60759 1.03566,0.60759 0.59521,-0.0381 1.09519,-0.53522 1.09519,-1.14281 -0.0286,-0.19046 -0.0476,-0.34474 -0.0952,-0.46474 -3.71411,-9.74953 -10.07095,-15.07071 -16.66587,-15.07071 -5.01167,0 -9.05909,4.04743 -9.05909,9.071 z" />
    <path
       inkscape:connector-curvature="0"
       id="path8511"
       style="fill:url(#linearGradient8503-4);stroke:none"
       d="m 799.19697,771.0547 c -0.0762,0.11905 -0.0952,0.27428 -0.0952,0.46474 0,0.60759 0.46379,1.10709 1.09519,1.14281 0.43997,0 0.82091,-0.2619 1.01185,-0.60759 0,-0.0286 0.01,-0.0571 0.01,-0.0571 l 0.0286,-0.0381 c 2.82129,-6.09494 8.07104,-8.95195 11.03518,-8.95195 1.65469,0 3.01177,1.34517 3.01177,3.01176 0,1.66659 -1.35708,3.04747 -3.01177,3.04747 -0.15523,0 -0.41617,-0.0381 -0.54759,-0.0476 -0.15523,0 -0.46379,-0.10762 -0.60759,0.23808 -0.13047,0.30951 -0.39236,1.76182 0.93996,3.27365 0.75044,0.84568 2.32131,1.55945 3.79743,1.55945 4.98786,0 9.0591,-4.04742 9.0591,-9.03528 0,-5.02357 -4.07124,-9.071 -9.0591,-9.071 -6.60682,0 -12.96366,5.32118 -16.66587,15.07071 z" />
  </g>
</svg>
